<svg width="50" height="50" viewBox="0 0 50 50" fill="none" xmlns="http://www.w3.org/2000/svg">
<circle cx="25" cy="25" r="25" fill="url(#paint0_linear_11_1824)"/>
<g filter="url(#filter0_f_11_1824)">
<path fill-rule="evenodd" clip-rule="evenodd" d="M11 17C10.4477 17 10 17.4477 10 18V34H9C8.44772 34 8 34.4477 8 35V36C8 36.5523 8.44772 37 9 37H11H39H41C41.5523 37 42 36.5523 42 36V35C42 34.4477 41.5523 34 41 34H40V18C40 17.4477 39.5523 17 39 17H11Z" fill="#30B8B1"/>
</g>
<path fill-rule="evenodd" clip-rule="evenodd" d="M10 16C10 15.4477 10.4477 15 11 15H39C39.5523 15 40 15.4477 40 16V34C40 34.5523 39.5523 35 39 35H11C10.4477 35 10 34.5523 10 34V16Z" fill="white"/>
<path fill-rule="evenodd" clip-rule="evenodd" d="M8 33C8 32.4477 8.44772 32 9 32H41C41.5523 32 42 32.4477 42 33V34C42 34.5523 41.5523 35 41 35H9C8.44772 35 8 34.5523 8 34V33Z" fill="white"/>
<path opacity="0.7" fill-rule="evenodd" clip-rule="evenodd" d="M29.6548 25.7716C30.0036 25.7716 30.3425 25.812 30.6667 25.8874V19.1785C30.6667 17.9772 29.6308 17 28.3575 17H21.3092C20.0358 17 19 17.9772 19 19.1785V28.5453C19 29.7466 20.0358 30.724 21.3092 30.724H25.5731C25.4888 30.4104 25.4439 30.0821 25.4439 29.7439C25.4439 27.5501 27.3291 25.7716 29.6548 25.7716ZM21.7853 19.2769H27.8807C28.1305 19.2769 28.333 19.5317 28.333 19.8461C28.333 20.1603 28.1305 20.4152 27.8807 20.4152H21.7853C21.5356 20.4152 21.333 20.1603 21.333 19.8461C21.333 19.5317 21.5355 19.2769 21.7853 19.2769ZM26.8136 21.5537H21.8525C21.5656 21.5537 21.333 21.8087 21.333 22.1229C21.333 22.4373 21.5657 22.6921 21.8525 22.6921H26.8136C27.1004 22.6921 27.333 22.4373 27.333 22.1229C27.333 21.8087 27.1004 21.5537 26.8136 21.5537ZM21.7875 23.8306H24.8786C25.1295 23.8306 25.333 24.0854 25.333 24.3998C25.333 24.714 25.1295 24.969 24.8786 24.969H21.7875C21.5366 24.969 21.333 24.714 21.333 24.3998C21.333 24.0854 21.5365 23.8306 21.7875 23.8306ZM21.7594 27.2453H23.4066C23.6421 27.2453 23.833 26.9904 23.833 26.6761C23.833 26.3618 23.6421 26.1069 23.4066 26.1069H21.7594C21.524 26.1069 21.333 26.3618 21.333 26.6761C21.333 26.9904 21.524 27.2453 21.7594 27.2453Z" fill="#00BFB7"/>
<circle cx="30" cy="29" r="5.5" fill="white"/>
<path opacity="0.7" fill-rule="evenodd" clip-rule="evenodd" d="M26 29C26 26.7943 27.7943 25 30 25C32.2056 25 34 26.7943 34 29.0001C34 31.2056 32.2057 33 30 33C27.7943 33 26 31.2056 26 29ZM31.1352 26.7404C31.057 26.7023 30.9766 26.6692 30.8934 26.6389V26.6382C30.8003 26.6079 30.7284 26.5338 30.7002 26.44V26.4393L30.6275 26.2165C30.5867 26.0868 30.4654 25.9986 30.3286 26H29.7517C29.6157 25.9986 29.4944 26.0867 29.4542 26.2165L29.4535 26.2172L29.3808 26.44C29.3526 26.5338 29.28 26.6086 29.1869 26.6389C29.1051 26.6692 29.0233 26.7024 28.9451 26.7404C28.8569 26.7835 28.754 26.782 28.6679 26.7369L28.6672 26.7362L28.4585 26.6297C28.3379 26.5656 28.1898 26.5888 28.0947 26.6868L27.8895 26.8899L27.6864 27.0944C27.5884 27.1896 27.5651 27.3384 27.6293 27.459H27.6285L27.7357 27.6691C27.7816 27.7551 27.7823 27.8581 27.7386 27.9455V27.9462C27.7019 28.0245 27.6673 28.1056 27.6384 28.1881C27.6074 28.2812 27.5333 28.3531 27.4403 28.382L27.2167 28.4547C27.087 28.4955 26.9988 28.6168 27.0002 28.7529V29.3297C26.9988 29.4665 27.0863 29.5878 27.2167 29.6287L27.4403 29.7013C27.5334 29.7303 27.6074 29.8022 27.6384 29.8946C27.668 29.9764 27.7019 30.0567 27.74 30.1357C27.7837 30.2239 27.7823 30.3268 27.7371 30.4143L27.63 30.623C27.5665 30.7435 27.5898 30.8916 27.6871 30.9868L27.8902 31.1913L28.0947 31.3958C28.1905 31.4924 28.3379 31.5157 28.4585 31.4529H28.4592L28.6679 31.3458C28.754 31.2999 28.8576 31.2985 28.9451 31.3422C29.024 31.3796 29.1044 31.4134 29.1869 31.4424C29.28 31.4734 29.3519 31.5474 29.3808 31.6405H29.3815L29.4542 31.8648C29.4944 31.9952 29.6157 32.0834 29.7517 32.0819H30.3286C30.4654 32.0834 30.5866 31.9952 30.6275 31.8648L30.7002 31.6405C30.7291 31.5474 30.801 31.4734 30.8934 31.4424C30.9759 31.4134 31.057 31.3796 31.1352 31.3422C31.2234 31.2985 31.327 31.2999 31.4138 31.3458L31.6225 31.4529C31.7431 31.5157 31.8912 31.4924 31.9871 31.3958H31.9864L32.3953 30.9868C32.4919 30.8916 32.5152 30.7436 32.4525 30.623L32.3453 30.4143C32.2994 30.3275 32.298 30.2239 32.3417 30.1357C32.3791 30.0567 32.413 29.9764 32.4419 29.8939C32.4736 29.8015 32.547 29.7296 32.6407 29.7006H32.64L32.8643 29.628C32.9947 29.5871 33.0829 29.4658 33.0808 29.329V28.7522C33.0822 28.6161 32.9947 28.4948 32.8643 28.4547L32.865 28.4539L32.6407 28.3813C32.547 28.3524 32.4729 28.2805 32.4419 28.1874C32.4123 28.1049 32.3791 28.0245 32.3417 27.9455C32.298 27.8581 32.2994 27.7544 32.3453 27.6684L32.4525 27.4583C32.5152 27.3377 32.4919 27.1903 32.3953 27.0944H32.396L32.1916 26.8899L31.9871 26.6868C31.8912 26.5888 31.7431 26.5655 31.6225 26.6297L31.4138 26.7362C31.3263 26.7813 31.2234 26.7827 31.1352 26.7404ZM31.289 28.5238C31.0796 28.0189 30.5867 27.6896 30.0395 27.6896C29.2934 27.6903 28.6884 28.2953 28.6884 29.0413C28.6884 29.5886 29.0177 30.0814 29.5226 30.2909C30.0282 30.5003 30.6093 30.3847 30.9964 29.9975C31.3828 29.6111 31.4985 29.0294 31.289 28.5238Z" fill="#00BFB7"/>
<defs>
<filter id="filter0_f_11_1824" x="5.28172" y="14.2817" width="39.4366" height="25.4366" filterUnits="userSpaceOnUse" color-interpolation-filters="sRGB">
<feFlood flood-opacity="0" result="BackgroundImageFix"/>
<feBlend mode="normal" in="SourceGraphic" in2="BackgroundImageFix" result="shape"/>
<feGaussianBlur stdDeviation="1.35914" result="effect1_foregroundBlur_11_1824"/>
</filter>
<linearGradient id="paint0_linear_11_1824" x1="58.2637" y1="32.8887" x2="32.1758" y2="-8.16211" gradientUnits="userSpaceOnUse">
<stop stop-color="#36CFC8"/>
<stop offset="1" stop-color="#BAF9F6"/>
</linearGradient>
</defs>
</svg>
