<svg width="50" height="50" viewBox="0 0 50 50" fill="none" xmlns="http://www.w3.org/2000/svg">
<circle cx="25" cy="25" r="25" fill="url(#paint0_linear_3820_1781)"/>
<g filter="url(#filter0_f_3820_1781)">
<path fill-rule="evenodd" clip-rule="evenodd" d="M11 17C10.4477 17 10 17.4477 10 18V34H9C8.44772 34 8 34.4477 8 35V36C8 36.5523 8.44772 37 9 37H11H39H41C41.5523 37 42 36.5523 42 36V35C42 34.4477 41.5523 34 41 34H40V18C40 17.4477 39.5523 17 39 17H11Z" fill="#EF7C91"/>
</g>
<path fill-rule="evenodd" clip-rule="evenodd" d="M10 16C10 15.4477 10.4477 15 11 15H39C39.5523 15 40 15.4477 40 16V34C40 34.5523 39.5523 35 39 35H11C10.4477 35 10 34.5523 10 34V16Z" fill="white"/>
<g opacity="0.8">
<path d="M30.35 25.15C30.74 25.15 31 24.89 31 24.5C31 24.175 30.74 23.85 30.35 23.85H29.7V22.55H30.35C30.74 22.55 31 22.29 31 21.9C31 21.575 30.74 21.25 30.35 21.25H29.7V20.6C29.7 19.885 29.115 19.3 28.4 19.3H27.75V18.65C27.75 18.325 27.49 18 27.1 18C26.775 18 26.45 18.26 26.45 18.65V19.3H25.15V18.65C25.15 18.325 24.89 18 24.5 18C24.11 18 23.85 18.26 23.85 18.65V19.3H22.55V18.65C22.55 18.325 22.29 18 21.9 18C21.51 18 21.25 18.26 21.25 18.65V19.3H20.6C19.885 19.3 19.3 19.885 19.3 20.6V21.25H18.65C18.26 21.25 18 21.51 18 21.9C18 22.225 18.26 22.55 18.65 22.55H19.3V23.85H18.65C18.26 23.85 18 24.11 18 24.5C18 24.825 18.26 25.15 18.65 25.15H19.3V26.45H18.65C18.26 26.45 18 26.71 18 27.1C18 27.425 18.26 27.75 18.65 27.75H19.3V28.4C19.3 29.115 19.885 29.7 20.6 29.7H21.25V30.35C21.25 30.675 21.51 31 21.9 31C22.29 31 22.55 30.74 22.55 30.35V29.7H23.85V30.35C23.85 30.675 24.11 31 24.5 31C24.89 31 25.15 30.74 25.15 30.35V29.7H26.45V30.35C26.45 30.675 26.71 31 27.1 31C27.425 31 27.75 30.74 27.75 30.35V29.7H28.4C29.115 29.7 29.7 29.115 29.7 28.4V27.75H30.35C30.74 27.75 31 27.49 31 27.1C31 26.775 30.74 26.45 30.35 26.45H29.7V25.15H30.35ZM28.4 28.4H20.6V20.6H28.4V28.4Z" fill="#EE7C90"/>
<path fill-rule="evenodd" clip-rule="evenodd" d="M27.75 21.25H21.25V27.75H27.75V21.25ZM26.0493 22.5499H26.9068V26.4499H26.0493V22.5499ZM24.3036 24.9423H23.2931L23.8011 23.5112H23.812L24.3036 24.9423ZM24.2545 22.5499H23.3751L21.9003 26.4499H22.7633L23.0692 25.5814H24.5276L24.8225 26.4499H25.7129L24.2545 22.5499Z" fill="#EE7C90"/>
</g>
<path fill-rule="evenodd" clip-rule="evenodd" d="M8 33C8 32.4477 8.44772 32 9 32H41C41.5523 32 42 32.4477 42 33V34C42 34.5523 41.5523 35 41 35H9C8.44772 35 8 34.5523 8 34V33Z" fill="white"/>
<defs>
<filter id="filter0_f_3820_1781" x="5.28172" y="14.2817" width="39.4366" height="25.4366" filterUnits="userSpaceOnUse" color-interpolation-filters="sRGB">
<feFlood flood-opacity="0" result="BackgroundImageFix"/>
<feBlend mode="normal" in="SourceGraphic" in2="BackgroundImageFix" result="shape"/>
<feGaussianBlur stdDeviation="1.35914" result="effect1_foregroundBlur_3820_1781"/>
</filter>
<linearGradient id="paint0_linear_3820_1781" x1="58.2637" y1="32.8887" x2="32.1758" y2="-8.16211" gradientUnits="userSpaceOnUse">
<stop stop-color="#EF7C91"/>
<stop offset="1" stop-color="#FFB2C0"/>
</linearGradient>
</defs>
</svg>
