<svg width="51" height="51" viewBox="0 0 51 51" fill="none" xmlns="http://www.w3.org/2000/svg">
<circle cx="25.8447" cy="25.9861" r="25" fill="url(#paint0_linear_1201_2199)"/>
<g filter="url(#filter0_d_1201_2199)">
<path fill-rule="evenodd" clip-rule="evenodd" d="M11.0674 16.9861C11.0674 16.4338 11.5151 15.9861 12.0674 15.9861H40.0674C40.6197 15.9861 41.0674 16.4338 41.0674 16.9861V34.9861C41.0674 35.5384 40.6197 35.9861 40.0674 35.9861H12.0674C11.5151 35.9861 11.0674 35.5384 11.0674 34.9861V16.9861Z" fill="white"/>
<g opacity="0.701846">
<mask id="mask0_1201_2199" style="mask-type:alpha" maskUnits="userSpaceOnUse" x="16" y="16" width="20" height="22">
<path d="M33.6979 27.3248C34.9121 46.8174 17.1606 33.6376 18.5043 32.6994C13.6964 30.1443 18.9684 18.4403 18.9676 16.1538L25.9278 16.6568C25.7399 16.9969 25.5915 17.3573 25.485 17.731L24.8204 18.0164V20.2944L25.9278 20.5678C26.0343 20.9415 26.0303 20.9111 26.218 21.2514L25.6711 22.1628L27.4332 23.9097L28.2991 23.3173C28.6387 23.5063 28.6695 23.5461 29.0434 23.6515L29.1802 24.6085H31.4588C32.2675 20.6582 38.857 32.4843 33.6979 27.3248Z" fill="#88B9B5"/>
</mask>
<g mask="url(#mask0_1201_2199)">
<path d="M20.4087 31.3123H30.2137C30.5303 31.3123 30.7871 31.0554 30.7871 30.7388V27.6993C30.7871 27.3822 30.5307 27.1246 30.2137 27.1235H20.4087C20.0915 27.1247 19.8351 27.3823 19.8351 27.6993V30.7275C19.8321 30.8815 19.8911 31.0303 19.9992 31.1404C20.107 31.2505 20.2545 31.3123 20.4087 31.3123L20.4087 31.3123ZM24.182 28.9028H29.335C29.4285 28.9028 29.5043 28.9787 29.5043 29.0722C29.5043 29.1658 29.4285 29.2417 29.335 29.2417H24.182C24.0885 29.2417 24.0127 29.1659 24.0127 29.0722C24.0127 28.9787 24.0885 28.9028 24.182 28.9028ZM21.924 28.1509C22.2084 28.1509 22.4813 28.264 22.6824 28.4651C22.8835 28.6663 22.9965 28.939 22.9965 29.2236C22.9965 29.508 22.8836 29.7809 22.6824 29.982C22.4813 30.1831 22.2084 30.2962 21.924 30.2962C21.6394 30.2962 21.3667 30.1831 21.1655 29.982C20.9644 29.7808 20.8513 29.508 20.8513 29.2236C20.8513 28.9389 20.9644 28.6662 21.1655 28.4651C21.3667 28.264 21.6394 28.1509 21.924 28.1509Z" fill="#88B9B5"/>
<path d="M22.6594 29.2119C22.6594 29.6172 22.3308 29.9458 21.9255 29.9458C21.5202 29.9458 21.1914 29.6172 21.1914 29.2119C21.1914 28.8066 21.5202 28.478 21.9255 28.478C22.3308 28.478 22.6594 28.8066 22.6594 29.2119Z" fill="#88B9B5"/>
<path d="M20.4087 26.6714H30.2137C30.5303 26.6714 30.7871 26.4146 30.7871 26.0979V23.0584C30.7871 22.7414 30.5307 22.4838 30.2137 22.4827H20.4087C20.0915 22.4838 19.8351 22.7414 19.8351 23.0584V26.0866C19.8321 26.2406 19.8911 26.3895 19.9992 26.4995C20.107 26.6096 20.2545 26.6714 20.4087 26.6714L20.4087 26.6714ZM24.182 24.262H29.335C29.4285 24.262 29.5043 24.3378 29.5043 24.4313C29.5043 24.525 29.4285 24.6008 29.335 24.6008H24.182C24.0885 24.6008 24.0127 24.525 24.0127 24.4313C24.0127 24.3378 24.0885 24.262 24.182 24.262ZM21.924 23.51C22.2084 23.51 22.4813 23.6231 22.6824 23.8242C22.8835 24.0254 22.9965 24.2981 22.9965 24.5827C22.9965 24.8671 22.8836 25.14 22.6824 25.3411C22.4813 25.5422 22.2084 25.6553 21.924 25.6553C21.6394 25.6553 21.3667 25.5423 21.1655 25.3411C20.9644 25.14 20.8513 24.8671 20.8513 24.5827C20.8513 24.2981 20.9644 24.0254 21.1655 23.8242C21.3667 23.6231 21.6394 23.51 21.924 23.51Z" fill="#88B9B5"/>
<path d="M22.6594 24.571C22.6594 24.9763 22.3308 25.3049 21.9255 25.3049C21.5202 25.3049 21.1914 24.9764 21.1914 24.571C21.1914 24.1657 21.5202 23.8372 21.9255 23.8372C22.3308 23.8372 22.6594 24.1657 22.6594 24.571Z" fill="#88B9B5"/>
<path d="M20.4087 21.9644H30.2137C30.5303 21.9644 30.7871 21.7075 30.7871 21.3909V18.3514C30.7871 18.0343 30.5307 17.7767 30.2137 17.7756H20.4087C20.0915 17.7768 19.8351 18.0343 19.8351 18.3514V21.3796C19.8321 21.5336 19.8911 21.6824 19.9992 21.7925C20.107 21.9026 20.2545 21.9644 20.4087 21.9644L20.4087 21.9644ZM24.182 19.5549H29.335C29.4285 19.5549 29.5043 19.6308 29.5043 19.7243C29.5043 19.8179 29.4285 19.8938 29.335 19.8938H24.182C24.0885 19.8938 24.0127 19.818 24.0127 19.7243C24.0127 19.6308 24.0885 19.5549 24.182 19.5549ZM21.924 18.803C22.2084 18.803 22.4813 18.9161 22.6824 19.1172C22.8835 19.3184 22.9965 19.5911 22.9965 19.8757C22.9965 20.1601 22.8836 20.433 22.6824 20.6341C22.4813 20.8352 22.2084 20.9483 21.924 20.9483C21.6394 20.9483 21.3667 20.8352 21.1655 20.6341C20.9644 20.4329 20.8513 20.1601 20.8513 19.8757C20.8513 19.591 20.9644 19.3183 21.1655 19.1172C21.3667 18.9161 21.6394 18.803 21.924 18.803Z" fill="#88B9B5"/>
<path d="M22.6594 19.864C22.6594 20.2693 22.3308 20.5979 21.9255 20.5979C21.5202 20.5979 21.1914 20.2693 21.1914 19.864C21.1914 19.4587 21.5202 19.1301 21.9255 19.1301C22.3308 19.1301 22.6594 19.4587 22.6594 19.864Z" fill="#88B9B5"/>
</g>
<path d="M34.14 17.0483L34.6797 16.2308L33.2888 14.842L32.4712 15.3794C32.1851 15.2214 31.8821 15.0965 31.5679 15.0069L31.3736 14.0493H29.4069L29.2104 15.0091C28.8962 15.0987 28.5932 15.2239 28.3071 15.3816L27.4896 14.8443L26.1008 16.233L26.6382 17.0505H26.6384C26.4804 17.3364 26.3555 17.6395 26.2659 17.9537L25.3105 18.1457V20.1126L26.2703 20.3091V20.3089C26.3599 20.6231 26.4851 20.9262 26.6429 21.2123L26.1055 22.0298L27.4942 23.4208L28.3117 22.881C28.5973 23.0399 28.9005 23.1648 29.2149 23.2535L29.4069 24.2111H31.3738L31.5703 23.2513H31.5701C31.8847 23.1626 32.1878 23.0376 32.4735 22.8788L33.291 23.4185L34.682 22.0275L34.14 21.21C34.2989 20.9243 34.4238 20.6212 34.5125 20.3067L35.4723 20.1124V18.1457L34.5125 17.9492C34.4237 17.6353 34.2987 17.333 34.14 17.0482L34.14 17.0483ZM30.3915 21.91C29.6541 21.91 28.9471 21.617 28.4259 21.0958C27.9046 20.5745 27.6116 19.8674 27.6116 19.1302C27.6116 18.3928 27.9046 17.6858 28.4259 17.1646C28.9471 16.6433 29.6541 16.3503 30.3915 16.3503C31.1287 16.3503 31.8358 16.6433 32.3571 17.1646C32.8783 17.6858 33.1713 18.3928 33.1713 19.1302C33.17 19.8671 32.8768 20.5734 32.3558 21.0945C31.8346 21.6155 31.1284 21.9086 30.3915 21.91Z" fill="#88B9B5"/>
<path d="M32.8342 19.1306C32.8342 20.4787 31.7414 21.5715 30.3932 21.5715C29.0451 21.5715 27.9521 20.4787 27.9521 19.1306C27.9521 17.7824 29.0451 16.6895 30.3932 16.6895C31.7414 16.6895 32.8342 17.7824 32.8342 19.1306Z" fill="#88B9B5"/>
</g>
<path fill-rule="evenodd" clip-rule="evenodd" d="M8.84473 33.9861C8.84473 33.4338 9.29244 32.9861 9.84473 32.9861H41.8447C42.397 32.9861 42.8447 33.4338 42.8447 33.9861V34.9861C42.8447 35.5384 42.397 35.9861 41.8447 35.9861H9.84473C9.29244 35.9861 8.84473 35.5384 8.84473 34.9861V33.9861Z" fill="white"/>
</g>
<defs>
<filter id="filter0_d_1201_2199" x="6.84473" y="14.0493" width="38" height="25.9368" filterUnits="userSpaceOnUse" color-interpolation-filters="sRGB">
<feFlood flood-opacity="0" result="BackgroundImageFix"/>
<feColorMatrix in="SourceAlpha" type="matrix" values="0 0 0 0 0 0 0 0 0 0 0 0 0 0 0 0 0 0 127 0" result="hardAlpha"/>
<feOffset dy="2"/>
<feGaussianBlur stdDeviation="1"/>
<feColorMatrix type="matrix" values="0 0 0 0 0.592157 0 0 0 0 0.760784 0 0 0 0 0.74902 0 0 0 1 0"/>
<feBlend mode="normal" in2="BackgroundImageFix" result="effect1_dropShadow_1201_2199"/>
<feBlend mode="normal" in="SourceGraphic" in2="effect1_dropShadow_1201_2199" result="shape"/>
</filter>
<linearGradient id="paint0_linear_1201_2199" x1="57.9191" y1="33.1602" x2="32.4968" y2="-6.84321" gradientUnits="userSpaceOnUse">
<stop stop-color="#97C2BF"/>
<stop offset="1" stop-color="#D1EDEB"/>
</linearGradient>
</defs>
</svg>
