<svg width="50" height="50" viewBox="0 0 50 50" fill="none" xmlns="http://www.w3.org/2000/svg">
<circle cx="25" cy="25" r="25" fill="url(#paint0_linear_11_1854)"/>
<g filter="url(#filter0_f_11_1854)">
<path fill-rule="evenodd" clip-rule="evenodd" d="M11 17C10.4477 17 10 17.4477 10 18V34H9C8.44772 34 8 34.4477 8 35V36C8 36.5523 8.44772 37 9 37H11H39H41C41.5523 37 42 36.5523 42 36V35C42 34.4477 41.5523 34 41 34H40V18C40 17.4477 39.5523 17 39 17H11Z" fill="#8DC774"/>
</g>
<path fill-rule="evenodd" clip-rule="evenodd" d="M11 15C10.4477 15 10 15.4477 10 16V32H9C8.44772 32 8 32.4477 8 33V34C8 34.5523 8.44772 35 9 35H11H39H41C41.5523 35 42 34.5523 42 34V33C42 32.4477 41.5523 32 41 32H40V16C40 15.4477 39.5523 15 39 15H11Z" fill="white"/>
<g opacity="0.7">
<path d="M29.2376 22.9029L28.9412 22.8649C29.1765 23.4354 29.3102 24.0621 29.3102 24.7202C29.3102 27.3928 27.1356 29.5674 24.4629 29.5674C21.7903 29.5674 19.6157 27.3928 19.6157 24.7202C19.6157 22.0475 21.7903 19.8729 24.4629 19.8729C25.1209 19.8729 25.7477 20.0059 26.3182 20.2419L26.2802 19.9455L27.3065 18.9192C26.4511 18.4933 25.4853 18.2579 24.463 18.2579C20.893 18.2579 18 21.1509 18 24.7202C18 28.2902 20.893 31.1832 24.463 31.1832C28.0331 31.1832 30.926 28.2902 30.926 24.7202C30.926 23.6973 30.6907 22.7321 30.2647 21.8767L29.2384 22.903L29.2376 22.9029ZM27.0784 21.7016L24.2613 24.5187C24.1501 24.6299 24.1501 24.8104 24.2613 24.9216C24.317 24.9772 24.3895 25.005 24.4628 25.005C24.5361 25.005 24.6086 24.9772 24.6643 24.9216L27.4814 22.1045L29.032 22.3012L31.1823 20.1509L30.0902 19.4957L30.8465 18.7394C30.9578 18.6281 30.9578 18.4477 30.8465 18.3364C30.7353 18.2252 30.5548 18.2252 30.4436 18.3364L29.6873 19.0928L29.0327 18L26.8824 20.1503L27.0791 21.7009L27.0784 21.7016Z" fill="#8BC670"/>
<path fill-rule="evenodd" clip-rule="evenodd" d="M26.4487 24.543C26.4816 25.0514 26.2978 25.5607 25.9249 25.9336C25.4089 26.4497 24.6343 26.6039 23.9602 26.3247C23.2872 26.0455 22.8482 25.3884 22.8482 24.6589C22.8482 23.7355 23.5434 22.9742 24.4389 22.8692L25.8345 21.4736C25.8189 21.4677 25.8033 21.4619 25.7876 21.4562V21.4553C25.6635 21.4148 25.5677 21.3161 25.5301 21.1911V21.1902L25.4332 20.8931C25.3787 20.7201 25.217 20.6026 25.0347 20.6045H24.2657C24.0843 20.6026 23.9226 20.7201 23.869 20.8931L23.8681 20.894L23.7713 21.1911C23.7337 21.3161 23.6368 21.4158 23.5127 21.4562C23.4037 21.4966 23.2947 21.5408 23.1903 21.5916C23.0728 21.6489 22.9356 21.647 22.8209 21.5869L22.8199 21.5859L22.5417 21.444C22.381 21.3584 22.1835 21.3895 22.0566 21.5201L21.7831 21.7909L21.5124 22.0635C21.3817 22.1904 21.3507 22.3887 21.4362 22.5495H21.4353L21.5782 22.8296C21.6393 22.9443 21.6402 23.0815 21.5819 23.1981V23.199C21.533 23.3034 21.487 23.4115 21.4484 23.5215C21.4071 23.6455 21.3084 23.7414 21.1843 23.78L20.8863 23.8768C20.7133 23.9313 20.5958 24.093 20.5977 24.2744V25.0434C20.5958 25.2257 20.7124 25.3874 20.8863 25.4419L21.1843 25.5388C21.3084 25.5773 21.4071 25.6732 21.4484 25.7963C21.4879 25.9054 21.533 26.0125 21.5838 26.1178C21.6421 26.2353 21.6402 26.3726 21.58 26.4891L21.4371 26.7674C21.3525 26.9281 21.3836 27.1255 21.5133 27.2524L21.784 27.5251L22.0566 27.7977C22.1845 27.9265 22.3809 27.9575 22.5417 27.8738H22.5426L22.8209 27.7309C22.9356 27.6698 23.0738 27.6679 23.1903 27.7262C23.2956 27.776 23.4028 27.8212 23.5127 27.8597C23.6368 27.9011 23.7327 27.9998 23.7713 28.1239H23.7722L23.869 28.4228C23.9226 28.5967 24.0843 28.7142 24.2657 28.7123H25.0347C25.217 28.7142 25.3787 28.5967 25.4332 28.4228L25.5301 28.1239C25.5686 27.9998 25.6645 27.9011 25.7876 27.8597C25.8976 27.8212 26.0057 27.776 26.11 27.7262C26.2276 27.6679 26.3657 27.6698 26.4814 27.7309L26.7596 27.8738C26.9203 27.9575 27.1178 27.9265 27.2456 27.7977H27.2447L27.7899 27.2524C27.9187 27.1256 27.9497 26.9281 27.866 26.7674L27.7231 26.4891C27.662 26.3735 27.6602 26.2353 27.7184 26.1178C27.7683 26.0125 27.8134 25.9054 27.8519 25.7954C27.8942 25.6723 27.992 25.5764 28.117 25.5378H28.1161L28.415 25.441C28.5889 25.3865 28.7064 25.2248 28.7036 25.0424V24.2735C28.7055 24.0921 28.5889 23.9304 28.415 23.8768L28.416 23.8759L28.117 23.779C27.992 23.7405 27.8933 23.6446 27.8519 23.5205C27.8189 23.4284 27.7825 23.3382 27.7422 23.2495L26.4487 24.543Z" fill="#8BC670"/>
</g>
<defs>
<filter id="filter0_f_11_1854" x="5.28172" y="14.2817" width="39.4366" height="25.4366" filterUnits="userSpaceOnUse" color-interpolation-filters="sRGB">
<feFlood flood-opacity="0" result="BackgroundImageFix"/>
<feBlend mode="normal" in="SourceGraphic" in2="BackgroundImageFix" result="shape"/>
<feGaussianBlur stdDeviation="1.35914" result="effect1_foregroundBlur_11_1854"/>
</filter>
<linearGradient id="paint0_linear_11_1854" x1="58.2637" y1="32.8887" x2="32.1758" y2="-8.16211" gradientUnits="userSpaceOnUse">
<stop stop-color="#85C26A"/>
<stop offset="1" stop-color="#CCF5BA"/>
</linearGradient>
</defs>
</svg>
