<svg width="51" height="51" viewBox="0 0 51 51" fill="none" xmlns="http://www.w3.org/2000/svg">
<circle cx="25.4697" cy="25.0374" r="25" fill="url(#paint0_linear_1061_11837)"/>
<g filter="url(#filter0_d_1061_11837)">
<path fill-rule="evenodd" clip-rule="evenodd" d="M37.4687 16.0374C38.021 16.0374 38.4687 16.4851 38.4687 17.0374L38.4687 33.0374C38.4687 33.5896 38.021 34.0374 37.4687 34.0374L13.4687 34.0374C12.9165 34.0374 12.4687 33.5896 12.4687 33.0374L12.4687 17.0374C12.4687 16.4851 12.9165 16.0374 13.4688 16.0374L37.4687 16.0374Z" fill="white"/>
<path opacity="0.699916" fill-rule="evenodd" clip-rule="evenodd" d="M25.4263 31.5611C24.8607 30.9212 24.1432 30.5096 23.2746 30.326C23.5509 29.9402 23.6887 29.5178 23.6887 29.0587C23.6887 28.4097 23.4361 27.8557 22.9312 27.3965C22.4262 26.9375 21.8167 26.7078 21.1028 26.7078C20.4564 26.7078 19.8974 26.8976 19.4261 27.2772C19.029 26.4079 18.3974 25.7038 17.5322 25.1651C16.6667 24.6264 15.702 24.3569 14.6379 24.3569C13.2103 24.3569 11.9913 24.8162 10.9811 25.7346C9.97085 26.6527 9.46589 27.7609 9.46589 29.0588C9.46589 29.1507 9.47264 29.2822 9.48609 29.4536C8.70493 29.7843 8.07521 30.2847 7.5971 30.9553C7.11903 31.6255 6.87988 32.3649 6.87988 33.173C6.87988 34.3056 7.32275 35.2744 8.20825 36.0794C9.09378 36.8846 10.1595 37.2871 11.4054 37.2871H22.3962C23.4668 37.2871 24.3809 36.9425 25.1387 36.254C25.8963 35.5652 26.2752 34.7342 26.2752 33.7607C26.2751 32.9343 25.9921 32.2007 25.4263 31.5611Z" fill="#8C6CF9"/>
<path opacity="0.699916" fill-rule="evenodd" clip-rule="evenodd" d="M41.7968 16.4846C41.4545 16.0973 41.0203 15.8482 40.4946 15.7371C40.6618 15.5036 40.7452 15.248 40.7452 14.9701C40.7452 14.5773 40.5923 14.242 40.2868 13.9641C39.9811 13.6863 39.6123 13.5473 39.1802 13.5473C38.789 13.5473 38.4506 13.6622 38.1654 13.8919C37.9251 13.3658 37.5428 12.9397 37.0192 12.6136C36.4954 12.2876 35.9115 12.1245 35.2675 12.1245C34.4035 12.1245 33.6658 12.4025 33.0544 12.9583C32.443 13.5139 32.1374 14.1846 32.1374 14.9702C32.1374 15.0258 32.1414 15.1054 32.1496 15.2091C31.6768 15.4092 31.2957 15.7121 31.0063 16.1179C30.717 16.5235 30.5723 16.971 30.5723 17.4601C30.5723 18.1456 30.8403 18.732 31.3762 19.2191C31.9121 19.7064 32.5572 19.9501 33.3112 19.9501H39.963C40.6109 19.9501 41.1642 19.7415 41.6228 19.3248C42.0813 18.908 42.3106 18.405 42.3106 17.8158C42.3105 17.3156 42.1393 16.8717 41.7968 16.4846Z" fill="#8C6CF9"/>
</g>
<path d="M21.6992 26.2101C22.341 24.1017 24.9584 19.6649 30.2935 18.7849" stroke="#977AF9" stroke-dasharray="1 1"/>
<defs>
<filter id="filter0_d_1061_11837" x="4.87988" y="12.1245" width="39.4307" height="29.1626" filterUnits="userSpaceOnUse" color-interpolation-filters="sRGB">
<feFlood flood-opacity="0" result="BackgroundImageFix"/>
<feColorMatrix in="SourceAlpha" type="matrix" values="0 0 0 0 0 0 0 0 0 0 0 0 0 0 0 0 0 0 127 0" result="hardAlpha"/>
<feOffset dy="2"/>
<feGaussianBlur stdDeviation="1"/>
<feColorMatrix type="matrix" values="0 0 0 0 0.548221 0 0 0 0 0.422931 0 0 0 0 0.976297 0 0 0 0.378906 0"/>
<feBlend mode="normal" in2="BackgroundImageFix" result="effect1_dropShadow_1061_11837"/>
<feBlend mode="normal" in="SourceGraphic" in2="effect1_dropShadow_1061_11837" result="shape"/>
</filter>
<linearGradient id="paint0_linear_1061_11837" x1="58.7334" y1="32.926" x2="32.6455" y2="-8.12476" gradientUnits="userSpaceOnUse">
<stop stop-color="#A48CF6"/>
<stop offset="1" stop-color="#D1C5FF"/>
</linearGradient>
</defs>
</svg>
