<svg width="51" height="51" viewBox="0 0 51 51" fill="none" xmlns="http://www.w3.org/2000/svg">
<circle cx="25.4697" cy="25.533" r="25" fill="url(#paint0_linear_1061_11646)"/>
<g filter="url(#filter0_f_1061_11646)">
<path fill-rule="evenodd" clip-rule="evenodd" d="M10.4697 18.533C10.4697 17.9807 10.9174 17.533 11.4697 17.533H39.4697C40.022 17.533 40.4697 17.9807 40.4697 18.533V36.533C40.4697 37.0852 40.022 37.533 39.4697 37.533H11.4697C10.9174 37.533 10.4697 37.0852 10.4697 36.533V18.533Z" fill="#F6B684"/>
</g>
<path fill-rule="evenodd" clip-rule="evenodd" d="M10.4697 16.533C10.4697 15.9807 10.9174 15.533 11.4697 15.533H39.4697C40.022 15.533 40.4697 15.9807 40.4697 16.533V34.533C40.4697 35.0852 40.022 35.533 39.4697 35.533H11.4697C10.9174 35.533 10.4697 35.0852 10.4697 34.533V16.533Z" fill="white"/>
<path fill-rule="evenodd" clip-rule="evenodd" d="M34.415 18.533H18.5244V29.3022H34.415V18.533ZM32.2705 27.6868H25.9424V26.6099H32.2705V27.6868ZM25.9424 25.533H32.2705V24.456H25.9424V25.533ZM32.2705 23.3791H25.9424V22.3022H32.2705V23.3791ZM25.9424 21.2253H32.2705V20.1483H25.9424V21.2253Z" fill="#E7B08B"/>
<path d="M19.0518 32.533H33.8877C34.7614 32.533 35.4697 31.8098 35.4697 30.9176V30.3792H17.4697V30.9176C17.4697 31.8098 18.178 32.533 19.0518 32.533Z" fill="#E7B08B"/>
<path d="M13.3609 25.7529L13.3609 25.7529L15.2931 23.8208C14.9451 23.1724 14.7471 22.4311 14.7471 21.6443C14.7471 19.0975 16.8117 17.033 19.3584 17.033C21.9052 17.033 23.9697 19.0975 23.9697 21.6443C23.9697 24.191 21.9052 26.2556 19.3585 26.2556C18.5716 26.2556 17.8304 26.0576 17.182 25.7096L15.2499 27.6418L15.2498 27.6418C14.7282 28.1634 13.8826 28.1633 13.361 27.6418L13.3609 27.6418C12.8393 27.1201 12.8393 26.2745 13.3609 25.7529Z" fill="#E7B08B" stroke="white"/>
<path d="M18.9302 23.533L17.4697 22.2062L18.2326 21.5132L18.9302 22.1469L20.7068 20.533L21.4697 21.226L18.9302 23.533Z" fill="white"/>
<defs>
<filter id="filter0_f_1061_11646" x="7.75144" y="14.8147" width="35.4366" height="25.4366" filterUnits="userSpaceOnUse" color-interpolation-filters="sRGB">
<feFlood flood-opacity="0" result="BackgroundImageFix"/>
<feBlend mode="normal" in="SourceGraphic" in2="BackgroundImageFix" result="shape"/>
<feGaussianBlur stdDeviation="1.35914" result="effect1_foregroundBlur_1061_11646"/>
</filter>
<linearGradient id="paint0_linear_1061_11646" x1="57.5441" y1="32.707" x2="32.1218" y2="-7.29634" gradientUnits="userSpaceOnUse">
<stop stop-color="#EEBB97"/>
<stop offset="1" stop-color="#FDE8DA"/>
</linearGradient>
</defs>
</svg>
