<svg width="51" height="51" viewBox="0 0 51 51" fill="none" xmlns="http://www.w3.org/2000/svg">
<circle cx="25.9883" cy="25.8916" r="25" fill="url(#paint0_linear_1209_2479)"/>
<g filter="url(#filter0_f_1209_2479)">
<path fill-rule="evenodd" clip-rule="evenodd" d="M11.9883 17.8916C11.436 17.8916 10.9883 18.3393 10.9883 18.8916V34.8916H9.98828C9.436 34.8916 8.98828 35.3393 8.98828 35.8916V36.8916C8.98828 37.4439 9.436 37.8916 9.98828 37.8916H11.9883H39.9883H41.9883C42.5406 37.8916 42.9883 37.4439 42.9883 36.8916V35.8916C42.9883 35.3393 42.5406 34.8916 41.9883 34.8916H40.9883V18.8916C40.9883 18.3393 40.5406 17.8916 39.9883 17.8916H11.9883Z" fill="#30B8B1"/>
</g>
<path fill-rule="evenodd" clip-rule="evenodd" d="M10.9883 16.8916C10.9883 16.3393 11.436 15.8916 11.9883 15.8916H39.9883C40.5406 15.8916 40.9883 16.3393 40.9883 16.8916V34.8916C40.9883 35.4439 40.5406 35.8916 39.9883 35.8916H11.9883C11.436 35.8916 10.9883 35.4439 10.9883 34.8916V16.8916Z" fill="white"/>
<path opacity="0.8" fill-rule="evenodd" clip-rule="evenodd" d="M33.0222 18.3066C32.5726 17.7979 32.0023 17.4707 31.3118 17.3248C31.5314 17.0181 31.641 16.6823 31.641 16.3174C31.641 15.8015 31.4402 15.3611 31.0388 14.9961C30.6374 14.6311 30.1529 14.4486 29.5854 14.4486C29.0715 14.4486 28.6272 14.5995 28.2526 14.9012C27.9368 14.2102 27.4348 13.6505 26.747 13.2222C26.0591 12.7941 25.2921 12.5798 24.4463 12.5798C23.3115 12.5798 22.3425 12.9449 21.5394 13.6749C20.7364 14.4048 20.335 15.2857 20.335 16.3175C20.335 16.3905 20.3403 16.495 20.351 16.6313C19.7301 16.8941 19.2295 17.292 18.8494 17.825C18.4694 18.3577 18.2793 18.9455 18.2793 19.5879C18.2793 20.4882 18.6313 21.2584 19.3352 21.8983C20.0392 22.5383 20.8864 22.8583 21.8767 22.8583H30.6135C31.4646 22.8583 32.1913 22.5843 32.7936 22.037C33.3958 21.4896 33.697 20.8289 33.697 20.0551C33.6969 19.3981 33.472 18.815 33.0222 18.3066Z" fill="#77D0CB"/>
<g opacity="0.8">
<path d="M27.9039 27.5557H26.4482V27.5557H25.5318V27.5557H24.0761C23.7545 27.5557 23.4883 27.7937 23.4883 28.088V30.0233C23.4883 30.3145 23.7511 30.5557 24.0761 30.5557H27.9004C28.222 30.5557 28.4882 30.3177 28.4882 30.0233V28.088C28.4917 27.7968 28.2255 27.5557 27.9039 27.5557Z" fill="#77D0CB"/>
<path d="M33.9009 27.5557H32.4461V27.5557H31.5304V27.5557H30.0757C29.7543 27.5557 29.4883 27.7937 29.4883 28.088V30.0233C29.4883 30.3145 29.7509 30.5557 30.0757 30.5557H33.9009C34.2222 30.5557 34.4883 30.3177 34.4883 30.0233V28.088C34.4848 27.7968 34.2222 27.5557 33.9009 27.5557Z" fill="#77D0CB"/>
<path d="M21.9039 27.5557H20.4482V27.5557H19.5318V27.5557H18.0761C17.7545 27.5557 17.4883 27.7937 17.4883 28.088V30.0233C17.4883 30.3145 17.7511 30.5557 18.0761 30.5557H21.9005C22.222 30.5557 22.4883 30.3177 22.4883 30.0233V28.088C22.4883 27.7968 22.2255 27.5557 21.9039 27.5557Z" fill="#77D0CB"/>
<path d="M25.5226 25.4576H20.4196V26.5558H19.4883V24.9695C19.4883 24.6996 19.6956 24.4814 19.9522 24.4814H25.5191V22.8619L26.4504 22.8582V24.4777H32.0244C32.2809 24.4777 32.4883 24.6959 32.4883 24.9658V26.5521H31.5569V25.4576H26.4539V26.5521H25.5226V25.4576Z" fill="#77D0CB"/>
</g>
<path fill-rule="evenodd" clip-rule="evenodd" d="M8.98828 33.8916C8.98828 33.3393 9.436 32.8916 9.98828 32.8916H41.9883C42.5406 32.8916 42.9883 33.3393 42.9883 33.8916V34.8916C42.9883 35.4439 42.5406 35.8916 41.9883 35.8916H9.98828C9.436 35.8916 8.98828 35.4439 8.98828 34.8916V33.8916Z" fill="white"/>
<defs>
<filter id="filter0_f_1209_2479" x="6.27" y="15.1733" width="39.4366" height="25.4366" filterUnits="userSpaceOnUse" color-interpolation-filters="sRGB">
<feFlood flood-opacity="0" result="BackgroundImageFix"/>
<feBlend mode="normal" in="SourceGraphic" in2="BackgroundImageFix" result="shape"/>
<feGaussianBlur stdDeviation="1.35914" result="effect1_foregroundBlur_1209_2479"/>
</filter>
<linearGradient id="paint0_linear_1209_2479" x1="59.252" y1="33.7803" x2="33.1641" y2="-7.27051" gradientUnits="userSpaceOnUse">
<stop stop-color="#36CFC8"/>
<stop offset="1" stop-color="#BAF9F6"/>
</linearGradient>
</defs>
</svg>
