<svg width="50" height="50" viewBox="0 0 50 50" fill="none" xmlns="http://www.w3.org/2000/svg">
<circle cx="25" cy="25" r="25" fill="url(#paint0_linear_2941_2328)"/>
<g filter="url(#filter0_f_2941_2328)">
<path fill-rule="evenodd" clip-rule="evenodd" d="M11 17C10.4477 17 10 17.4477 10 18V34H9C8.44772 34 8 34.4477 8 35V36C8 36.5523 8.44772 37 9 37H11H39H41C41.5523 37 42 36.5523 42 36V35C42 34.4477 41.5523 34 41 34H40V18C40 17.4477 39.5523 17 39 17H11Z" fill="#EF7C91"/>
</g>
<path fill-rule="evenodd" clip-rule="evenodd" d="M10 16C10 15.4477 10.4477 15 11 15H39C39.5523 15 40 15.4477 40 16V34C40 34.5523 39.5523 35 39 35H11C10.4477 35 10 34.5523 10 34V16Z" fill="white"/>
<path fill-rule="evenodd" clip-rule="evenodd" d="M8 33C8 32.4477 8.44772 32 9 32H41C41.5523 32 42 32.4477 42 33V34C42 34.5523 41.5523 35 41 35H9C8.44772 35 8 34.5523 8 34V33Z" fill="white"/>
<path d="M15.0237 25.63C15.0237 25.87 15.067 26.0733 15.1537 26.24C15.2403 26.4067 15.3537 26.5433 15.4937 26.65C15.6403 26.75 15.8103 26.8267 16.0037 26.88C16.197 26.9267 16.397 26.95 16.6037 26.95C16.7437 26.95 16.8937 26.94 17.0537 26.92C17.2137 26.8933 17.3637 26.8467 17.5037 26.78C17.6437 26.7133 17.7603 26.6233 17.8537 26.51C17.947 26.39 17.9937 26.24 17.9937 26.06C17.9937 25.8667 17.9303 25.71 17.8037 25.59C17.6837 25.47 17.5237 25.37 17.3237 25.29C17.1237 25.21 16.897 25.14 16.6437 25.08C16.3903 25.02 16.1337 24.9533 15.8737 24.88C15.607 24.8133 15.347 24.7333 15.0937 24.64C14.8403 24.54 14.6137 24.4133 14.4137 24.26C14.2137 24.1067 14.0503 23.9167 13.9237 23.69C13.8037 23.4567 13.7437 23.1767 13.7437 22.85C13.7437 22.4833 13.8203 22.1667 13.9737 21.9C14.1337 21.6267 14.3403 21.4 14.5937 21.22C14.847 21.04 15.1337 20.9067 15.4537 20.82C15.7737 20.7333 16.0937 20.69 16.4137 20.69C16.787 20.69 17.1437 20.7333 17.4837 20.82C17.8303 20.9 18.137 21.0333 18.4037 21.22C18.6703 21.4067 18.8803 21.6467 19.0337 21.94C19.1937 22.2267 19.2737 22.5767 19.2737 22.99H17.7537C17.7403 22.7767 17.6937 22.6 17.6137 22.46C17.5403 22.32 17.4403 22.21 17.3137 22.13C17.187 22.05 17.0403 21.9933 16.8737 21.96C16.7137 21.9267 16.537 21.91 16.3437 21.91C16.217 21.91 16.0903 21.9233 15.9637 21.95C15.837 21.9767 15.7203 22.0233 15.6137 22.09C15.5137 22.1567 15.4303 22.24 15.3637 22.34C15.297 22.44 15.2637 22.5667 15.2637 22.72C15.2637 22.86 15.2903 22.9733 15.3437 23.06C15.397 23.1467 15.5003 23.2267 15.6537 23.3C15.8137 23.3733 16.0303 23.4467 16.3037 23.52C16.5837 23.5933 16.947 23.6867 17.3937 23.8C17.527 23.8267 17.7103 23.8767 17.9437 23.95C18.1837 24.0167 18.4203 24.1267 18.6537 24.28C18.887 24.4333 19.087 24.64 19.2537 24.9C19.427 25.1533 19.5137 25.48 19.5137 25.88C19.5137 26.2067 19.4503 26.51 19.3237 26.79C19.197 27.07 19.007 27.3133 18.7537 27.52C18.507 27.72 18.197 27.8767 17.8237 27.99C17.457 28.1033 17.0303 28.16 16.5437 28.16C16.1503 28.16 15.767 28.11 15.3937 28.01C15.027 27.9167 14.7003 27.7667 14.4137 27.56C14.1337 27.3533 13.9103 27.09 13.7437 26.77C13.577 26.45 13.497 26.07 13.5037 25.63H15.0237ZM20.2378 24.42C20.2578 24.0867 20.3411 23.81 20.4878 23.59C20.6345 23.37 20.8211 23.1933 21.0478 23.06C21.2745 22.9267 21.5278 22.8333 21.8078 22.78C22.0945 22.72 22.3811 22.69 22.6678 22.69C22.9278 22.69 23.1911 22.71 23.4578 22.75C23.7245 22.7833 23.9678 22.8533 24.1878 22.96C24.4078 23.0667 24.5878 23.2167 24.7278 23.41C24.8678 23.5967 24.9378 23.8467 24.9378 24.16V26.85C24.9378 27.0833 24.9511 27.3067 24.9778 27.52C25.0045 27.7333 25.0511 27.8933 25.1178 28H23.6778C23.6511 27.92 23.6278 27.84 23.6078 27.76C23.5945 27.6733 23.5845 27.5867 23.5778 27.5C23.3511 27.7333 23.0845 27.8967 22.7778 27.99C22.4711 28.0833 22.1578 28.13 21.8378 28.13C21.5911 28.13 21.3611 28.1 21.1478 28.04C20.9345 27.98 20.7478 27.8867 20.5878 27.76C20.4278 27.6333 20.3011 27.4733 20.2078 27.28C20.1211 27.0867 20.0778 26.8567 20.0778 26.59C20.0778 26.2967 20.1278 26.0567 20.2278 25.87C20.3345 25.6767 20.4678 25.5233 20.6278 25.41C20.7945 25.2967 20.9811 25.2133 21.1878 25.16C21.4011 25.1 21.6145 25.0533 21.8278 25.02C22.0411 24.9867 22.2511 24.96 22.4578 24.94C22.6645 24.92 22.8478 24.89 23.0078 24.85C23.1678 24.81 23.2945 24.7533 23.3878 24.68C23.4811 24.6 23.5245 24.4867 23.5178 24.34C23.5178 24.1867 23.4911 24.0667 23.4378 23.98C23.3911 23.8867 23.3245 23.8167 23.2378 23.77C23.1578 23.7167 23.0611 23.6833 22.9478 23.67C22.8411 23.65 22.7245 23.64 22.5978 23.64C22.3178 23.64 22.0978 23.7 21.9378 23.82C21.7778 23.94 21.6845 24.14 21.6578 24.42H20.2378ZM23.5178 25.47C23.4578 25.5233 23.3811 25.5667 23.2878 25.6C23.2011 25.6267 23.1045 25.65 22.9978 25.67C22.8978 25.69 22.7911 25.7067 22.6778 25.72C22.5645 25.7333 22.4511 25.75 22.3378 25.77C22.2311 25.79 22.1245 25.8167 22.0178 25.85C21.9178 25.8833 21.8278 25.93 21.7478 25.99C21.6745 26.0433 21.6145 26.1133 21.5678 26.2C21.5211 26.2867 21.4978 26.3967 21.4978 26.53C21.4978 26.6567 21.5211 26.7633 21.5678 26.85C21.6145 26.9367 21.6778 27.0067 21.7578 27.06C21.8378 27.1067 21.9311 27.14 22.0378 27.16C22.1445 27.18 22.2545 27.19 22.3678 27.19C22.6478 27.19 22.8645 27.1433 23.0178 27.05C23.1711 26.9567 23.2845 26.8467 23.3578 26.72C23.4311 26.5867 23.4745 26.4533 23.4878 26.32C23.5078 26.1867 23.5178 26.08 23.5178 26V25.47ZM25.98 24.42C26 24.0867 26.0833 23.81 26.23 23.59C26.3767 23.37 26.5633 23.1933 26.79 23.06C27.0167 22.9267 27.27 22.8333 27.55 22.78C27.8367 22.72 28.1233 22.69 28.41 22.69C28.67 22.69 28.9333 22.71 29.2 22.75C29.4667 22.7833 29.71 22.8533 29.93 22.96C30.15 23.0667 30.33 23.2167 30.47 23.41C30.61 23.5967 30.68 23.8467 30.68 24.16V26.85C30.68 27.0833 30.6933 27.3067 30.72 27.52C30.7467 27.7333 30.7933 27.8933 30.86 28H29.42C29.3933 27.92 29.37 27.84 29.35 27.76C29.3367 27.6733 29.3267 27.5867 29.32 27.5C29.0933 27.7333 28.8267 27.8967 28.52 27.99C28.2133 28.0833 27.9 28.13 27.58 28.13C27.3333 28.13 27.1033 28.1 26.89 28.04C26.6767 27.98 26.49 27.8867 26.33 27.76C26.17 27.6333 26.0433 27.4733 25.95 27.28C25.8633 27.0867 25.82 26.8567 25.82 26.59C25.82 26.2967 25.87 26.0567 25.97 25.87C26.0767 25.6767 26.21 25.5233 26.37 25.41C26.5367 25.2967 26.7233 25.2133 26.93 25.16C27.1433 25.1 27.3567 25.0533 27.57 25.02C27.7833 24.9867 27.9933 24.96 28.2 24.94C28.4067 24.92 28.59 24.89 28.75 24.85C28.91 24.81 29.0367 24.7533 29.13 24.68C29.2233 24.6 29.2667 24.4867 29.26 24.34C29.26 24.1867 29.2333 24.0667 29.18 23.98C29.1333 23.8867 29.0667 23.8167 28.98 23.77C28.9 23.7167 28.8033 23.6833 28.69 23.67C28.5833 23.65 28.4667 23.64 28.34 23.64C28.06 23.64 27.84 23.7 27.68 23.82C27.52 23.94 27.4267 24.14 27.4 24.42H25.98ZM29.26 25.47C29.2 25.5233 29.1233 25.5667 29.03 25.6C28.9433 25.6267 28.8467 25.65 28.74 25.67C28.64 25.69 28.5333 25.7067 28.42 25.72C28.3067 25.7333 28.1933 25.75 28.08 25.77C27.9733 25.79 27.8667 25.8167 27.76 25.85C27.66 25.8833 27.57 25.93 27.49 25.99C27.4167 26.0433 27.3567 26.1133 27.31 26.2C27.2633 26.2867 27.24 26.3967 27.24 26.53C27.24 26.6567 27.2633 26.7633 27.31 26.85C27.3567 26.9367 27.42 27.0067 27.5 27.06C27.58 27.1067 27.6733 27.14 27.78 27.16C27.8867 27.18 27.9967 27.19 28.11 27.19C28.39 27.19 28.6067 27.1433 28.76 27.05C28.9133 26.9567 29.0267 26.8467 29.1 26.72C29.1733 26.5867 29.2167 26.4533 29.23 26.32C29.25 26.1867 29.26 26.08 29.26 26V25.47ZM33.0022 25.63C33.0022 25.87 33.0455 26.0733 33.1322 26.24C33.2189 26.4067 33.3322 26.5433 33.4722 26.65C33.6189 26.75 33.7889 26.8267 33.9822 26.88C34.1755 26.9267 34.3755 26.95 34.5822 26.95C34.7222 26.95 34.8722 26.94 35.0322 26.92C35.1922 26.8933 35.3422 26.8467 35.4822 26.78C35.6222 26.7133 35.7389 26.6233 35.8322 26.51C35.9255 26.39 35.9722 26.24 35.9722 26.06C35.9722 25.8667 35.9089 25.71 35.7822 25.59C35.6622 25.47 35.5022 25.37 35.3022 25.29C35.1022 25.21 34.8755 25.14 34.6222 25.08C34.3689 25.02 34.1122 24.9533 33.8522 24.88C33.5855 24.8133 33.3255 24.7333 33.0722 24.64C32.8189 24.54 32.5922 24.4133 32.3922 24.26C32.1922 24.1067 32.0289 23.9167 31.9022 23.69C31.7822 23.4567 31.7222 23.1767 31.7222 22.85C31.7222 22.4833 31.7989 22.1667 31.9522 21.9C32.1122 21.6267 32.3189 21.4 32.5722 21.22C32.8255 21.04 33.1122 20.9067 33.4322 20.82C33.7522 20.7333 34.0722 20.69 34.3922 20.69C34.7655 20.69 35.1222 20.7333 35.4622 20.82C35.8089 20.9 36.1155 21.0333 36.3822 21.22C36.6489 21.4067 36.8589 21.6467 37.0122 21.94C37.1722 22.2267 37.2522 22.5767 37.2522 22.99H35.7322C35.7189 22.7767 35.6722 22.6 35.5922 22.46C35.5189 22.32 35.4189 22.21 35.2922 22.13C35.1655 22.05 35.0189 21.9933 34.8522 21.96C34.6922 21.9267 34.5155 21.91 34.3222 21.91C34.1955 21.91 34.0689 21.9233 33.9422 21.95C33.8155 21.9767 33.6989 22.0233 33.5922 22.09C33.4922 22.1567 33.4089 22.24 33.3422 22.34C33.2755 22.44 33.2422 22.5667 33.2422 22.72C33.2422 22.86 33.2689 22.9733 33.3222 23.06C33.3755 23.1467 33.4789 23.2267 33.6322 23.3C33.7922 23.3733 34.0089 23.4467 34.2822 23.52C34.5622 23.5933 34.9255 23.6867 35.3722 23.8C35.5055 23.8267 35.6889 23.8767 35.9222 23.95C36.1622 24.0167 36.3989 24.1267 36.6322 24.28C36.8655 24.4333 37.0655 24.64 37.2322 24.9C37.4055 25.1533 37.4922 25.48 37.4922 25.88C37.4922 26.2067 37.4289 26.51 37.3022 26.79C37.1755 27.07 36.9855 27.3133 36.7322 27.52C36.4855 27.72 36.1755 27.8767 35.8022 27.99C35.4355 28.1033 35.0089 28.16 34.5222 28.16C34.1289 28.16 33.7455 28.11 33.3722 28.01C33.0055 27.9167 32.6789 27.7667 32.3922 27.56C32.1122 27.3533 31.8889 27.09 31.7222 26.77C31.5555 26.45 31.4755 26.07 31.4822 25.63H33.0022Z" fill="#FA9EAE"/>
<defs>
<filter id="filter0_f_2941_2328" x="5.28172" y="14.2817" width="39.4366" height="25.4366" filterUnits="userSpaceOnUse" color-interpolation-filters="sRGB">
<feFlood flood-opacity="0" result="BackgroundImageFix"/>
<feBlend mode="normal" in="SourceGraphic" in2="BackgroundImageFix" result="shape"/>
<feGaussianBlur stdDeviation="1.35914" result="effect1_foregroundBlur_2941_2328"/>
</filter>
<linearGradient id="paint0_linear_2941_2328" x1="58.2637" y1="32.8887" x2="32.1758" y2="-8.16211" gradientUnits="userSpaceOnUse">
<stop stop-color="#EF7C91"/>
<stop offset="1" stop-color="#FFB2C0"/>
</linearGradient>
</defs>
</svg>
